<svg width="96" height="96" viewBox="0 0 96 96" fill="none" xmlns="http://www.w3.org/2000/svg">
<path d="M64 0H32C14.4 0 0 14.4 0 32V64C0 81.6 14.4 96 32 96H64C81.6 96 96 81.6 96 64V32C96 14.4 81.6 0 64 0Z" fill="white"/>
<path d="M64 8H32C18.8 8 8 18.8 8 32V64C8 77.2 18.8 88 32 88H64C77.2 88 88 77.2 88 64V32C88 18.8 77.2 8 64 8ZM80 64C80 72.8 72.8 80 64 80H32C23.2 80 16 72.8 16 64V32C16 23.2 23.2 16 32 16H64C72.8 16 80 23.2 80 32V64Z" fill="black"/>
<path d="M51.1 26H33.4C32.6 26 32 26.6 32 27.4V68.5C32 69.3 32.6 69.9 33.4 69.9H42.4C43.2 69.9 43.8 69.3 43.8 68.5V55.5H51.1C60.2 55.5 65.8 49.9 65.8 40.8C65.8 31.7 60.3 26 51.1 26ZM48.7 46.5H43.9V35H48.7C52.2 35 54.4 37.2 54.4 40.7C54.4 44.3 52.3 46.5 48.7 46.5Z" fill="black"/>
</svg>
