<svg width="96" height="96" viewBox="0 0 96 96" fill="none" xmlns="http://www.w3.org/2000/svg">
<path d="M45.4086 84.5115L47.8536 88.7034L50.5105 84.6424L57.1867 74.4377C57.5108 74.3212 57.8899 74.1848 58.2773 74.0451C59.2894 73.6802 60.4581 73.2573 60.7489 73.1426C73.7814 68.0027 83 55.2206 83 40.2785C83 20.8193 67.3544 5 48 5C28.6456 5 13 20.8193 13 40.2785C13 55.6231 22.7218 68.6906 36.3146 73.542C36.601 73.6442 37.8015 73.9928 38.7355 74.2632C39.025 74.347 39.311 74.4295 39.5719 74.5048L45.4086 84.5115Z" fill="#25638F" stroke="white" stroke-width="6"/>
<path fill-rule="evenodd" clip-rule="evenodd" d="M55.0094 34.6707C55.0094 33.0133 56.353 31.6697 58.0104 31.6697H67.6638C71.4121 31.6697 74.3409 34.906 73.9679 38.6356L73.2679 45.6364C72.7735 50.5797 68.6138 54.3442 63.6458 54.3442H58.0104C56.353 54.3442 55.0094 53.0006 55.0094 51.3432V34.6707ZM61.0115 37.6718V48.3422H63.6458C65.5302 48.3422 67.1081 46.9142 67.2956 45.0392L67.9956 38.0384C68.0153 37.8421 67.8611 37.6718 67.6638 37.6718H61.0115Z" fill="white"/>
<path d="M31.3345 23H61.3449V53.0104C61.3449 56.6936 58.3591 59.6794 54.676 59.6794H38.0035C34.3203 59.6794 31.3345 56.6936 31.3345 53.0104V23Z" fill="white"/>
<path d="M28 26.3345C28 24.4929 29.4929 23 31.3345 23H61.3449C63.1865 23 64.6794 24.4929 64.6794 26.3345C64.6794 28.1761 63.1865 29.669 61.3449 29.669H31.3345C29.4929 29.669 28 28.1761 28 26.3345Z" fill="white"/>
</svg>
