<?xml version="1.0" encoding="UTF-8"?>
<svg xmlns="http://www.w3.org/2000/svg" xmlns:xlink="http://www.w3.org/1999/xlink" width="60px" height="60px" viewBox="0 0 60 60" version="1.1">
<g id="surface1">
<path style=" stroke:none;fill-rule:nonzero;fill:rgb(100%,100%,100%);fill-opacity:1;" d="M 50 2.5 L 10 2.5 C 5.855469 2.5 2.5 5.855469 2.5 10 L 2.5 50 C 2.5 54.144531 5.855469 57.5 10 57.5 L 50 57.5 C 54.144531 57.5 57.5 54.144531 57.5 50 L 57.5 10 C 57.5 5.855469 54.144531 2.5 50 2.5 Z M 50 2.5 "/>
<path style=" stroke:none;fill-rule:nonzero;fill:rgb(21.176471%,45.490196%,29.803922%);fill-opacity:1;" d="M 50 5 C 52.761719 5 55 7.238281 55 10 L 55 50 C 55 52.761719 52.761719 55 50 55 L 10 55 C 7.238281 55 5 52.761719 5 50 L 5 10 C 5 7.238281 7.238281 5 10 5 Z M 50 0 L 10 0 C 4.488281 0 0 4.488281 0 10 L 0 50 C 0 55.511719 4.488281 60 10 60 L 50 60 C 55.511719 60 60 55.511719 60 50 L 60 10 C 60 4.488281 55.511719 0 50 0 Z M 50 0 "/>
<path style=" stroke:none;fill-rule:nonzero;fill:rgb(30.588235%,67.45098%,44.313725%);fill-opacity:1;" d="M 49.144531 27.4375 L 10.855469 27.4375 C 9.820312 27.4375 8.882812 26.792969 8.519531 25.820312 C 8.15625 24.84375 8.425781 23.742188 9.207031 23.054688 L 23.351562 10.617188 C 23.804688 10.21875 24.394531 9.992188 25 9.992188 L 35 9.992188 C 35.605469 9.992188 36.195312 10.210938 36.648438 10.617188 L 50.792969 23.054688 C 51.574219 23.742188 51.851562 24.84375 51.480469 25.820312 C 51.113281 26.792969 50.179688 27.4375 49.144531 27.4375 Z M 17.488281 22.4375 L 42.511719 22.4375 L 34.054688 15 L 25.945312 15 Z M 17.488281 22.4375 "/>
<path style=" stroke:none;fill-rule:nonzero;fill:rgb(30.588235%,67.45098%,44.313725%);fill-opacity:1;" d="M 15 50 C 13.617188 50 12.5 48.882812 12.5 47.5 L 12.5 24.9375 C 12.5 23.554688 13.617188 22.4375 15 22.4375 C 16.382812 22.4375 17.5 23.554688 17.5 24.9375 L 17.5 47.5 C 17.5 48.882812 16.382812 50 15 50 Z M 15 50 "/>
<path style=" stroke:none;fill-rule:nonzero;fill:rgb(30.588235%,67.45098%,44.313725%);fill-opacity:1;" d="M 45 50 C 43.617188 50 42.5 48.882812 42.5 47.5 L 42.5 24.9375 C 42.5 23.554688 43.617188 22.4375 45 22.4375 C 46.382812 22.4375 47.5 23.554688 47.5 24.9375 L 47.5 47.5 C 47.5 48.882812 46.382812 50 45 50 Z M 45 50 "/>
<path style=" stroke:none;fill-rule:nonzero;fill:rgb(30.588235%,67.45098%,44.313725%);fill-opacity:1;" d="M 43.75 42.5 L 16.25 42.5 C 14.867188 42.5 13.75 41.382812 13.75 40 C 13.75 38.617188 14.867188 37.5 16.25 37.5 L 43.75 37.5 C 45.132812 37.5 46.25 38.617188 46.25 40 C 46.25 41.382812 45.132812 42.5 43.75 42.5 Z M 43.75 42.5 "/>
</g>
</svg>
